<svg width="138" height="138" viewBox="0 0 138 138" fill="none" xmlns="http://www.w3.org/2000/svg">
<g clip-path="url(#clip0_97_9098)">
<path d="M91.1013 98.6484C94.0785 98.6484 96.4919 96.235 96.4919 93.2578C96.4919 90.2807 94.0785 87.8672 91.1013 87.8672C88.1242 87.8672 85.7107 90.2807 85.7107 93.2578C85.7107 96.235 88.1242 98.6484 91.1013 98.6484Z" fill="#E64852"/>
<path d="M64.1482 127.219H21.5624C15.6177 127.219 10.7812 122.382 10.7812 116.437V72.2345C10.7812 66.2897 15.6177 61.4533 21.5624 61.4533H99.1871C105.132 61.4533 109.968 66.2897 109.968 72.2345V83.0157C109.968 85.9929 112.382 88.4063 115.359 88.4063C118.336 88.4063 120.75 85.9929 120.75 83.0157V72.2345C120.75 60.3449 111.077 50.672 99.1871 50.672H92.7084V31.661C92.7084 14.2033 78.1991 0.000366211 60.3648 0.000366211C42.5305 0.000366211 28.0212 14.2033 28.0212 31.661V50.672H21.5624C9.6729 50.672 0 60.3449 0 72.2345V116.437C0 128.327 9.6729 138 21.5624 138H64.1482C67.1254 138 69.5388 135.586 69.5388 132.609C69.5388 129.632 67.1254 127.219 64.1482 127.219ZM38.8024 31.661C38.8024 20.148 48.4753 10.7816 60.3648 10.7816C72.2543 10.7816 81.9272 20.148 81.9272 31.661V50.672H38.8024V31.661Z" fill="#E64852"/>
<path d="M135.747 87.7965C133.326 86.0632 129.958 86.6208 128.226 89.0417L101.656 126.156C100.93 126.998 100.021 127.179 99.5333 127.212C99.0336 127.245 98.0713 127.181 97.2242 126.387L80.0529 109.63C77.922 107.55 74.5092 107.592 72.43 109.723C70.3506 111.853 70.3921 115.266 72.523 117.345L89.7245 134.132C89.7407 134.148 89.7566 134.163 89.773 134.179C92.3516 136.634 95.7938 138 99.3354 138C99.6397 138 99.9448 137.99 100.25 137.969C104.108 137.712 107.71 135.836 110.133 132.822C110.195 132.744 110.255 132.664 110.314 132.583L136.992 95.3175C138.725 92.8968 138.168 89.5293 135.747 87.7965Z" fill="#E64852"/>
<path d="M70.6169 98.6484C73.5941 98.6484 76.0076 96.235 76.0076 93.2578C76.0076 90.2807 73.5941 87.8672 70.6169 87.8672C67.6398 87.8672 65.2263 90.2807 65.2263 93.2578C65.2263 96.235 67.6398 98.6484 70.6169 98.6484Z" fill="#E64852"/>
<path d="M30.1875 98.6484C33.1647 98.6484 35.5781 96.235 35.5781 93.2578C35.5781 90.2807 33.1647 87.8672 30.1875 87.8672C27.2103 87.8672 24.7969 90.2807 24.7969 93.2578C24.7969 96.235 27.2103 98.6484 30.1875 98.6484Z" fill="#E64852"/>
<path d="M50.4021 98.6484C53.3793 98.6484 55.7927 96.235 55.7927 93.2578C55.7927 90.2807 53.3793 87.8672 50.4021 87.8672C47.4249 87.8672 45.0115 90.2807 45.0115 93.2578C45.0115 96.235 47.4249 98.6484 50.4021 98.6484Z" fill="#E64852"/>
</g>
<defs>
<clipPath id="clip0_97_9098">
<rect width="138" height="138" fill="white"/>
</clipPath>
</defs>
</svg>
