<svg width="138" height="138" viewBox="0 0 138 138" fill="none" xmlns="http://www.w3.org/2000/svg">
<g clip-path="url(#clip0_97_9056)">
<path d="M22.5608 122.888C23.6786 122.888 24.5848 121.982 24.5848 120.864V114.392L30.19 117.628C30.5087 117.812 30.8568 117.899 31.2001 117.899C31.8995 117.899 32.5799 117.536 32.9547 116.887C33.5136 115.919 33.1819 114.681 32.2139 114.122L26.6087 110.886L32.2139 107.65C33.1819 107.091 33.5136 105.853 32.9547 104.885C32.3958 103.917 31.158 103.585 30.19 104.144L24.5848 107.381V100.908C24.5848 99.7903 23.6786 98.8842 22.5608 98.8842C21.4431 98.8842 20.5369 99.7903 20.5369 100.908V107.38L14.9317 104.144C13.9634 103.585 12.7259 103.917 12.167 104.885C11.6081 105.853 11.9398 107.091 12.9078 107.65L18.513 110.886L12.9078 114.122C11.9398 114.681 11.6081 115.919 12.167 116.887C12.5418 117.536 13.2221 117.899 13.9216 117.899C14.2649 117.899 14.613 117.811 14.9317 117.627L20.5369 114.391V120.864C20.5369 121.982 21.4428 122.888 22.5608 122.888Z" fill="#E64852"/>
<path d="M74.0857 116.887C74.4605 117.536 75.1408 117.899 75.8403 117.899C76.1836 117.899 76.5317 117.812 76.8504 117.628L82.4556 114.392V120.864C82.4556 121.982 83.3618 122.888 84.4795 122.888C85.5973 122.888 86.5035 121.982 86.5035 120.864V114.392L92.1087 117.628C92.4274 117.812 92.7755 117.899 93.1188 117.899C93.8183 117.899 94.4986 117.536 94.8734 116.887C95.4323 115.919 95.1006 114.681 94.1326 114.122L88.5274 110.886L94.1326 107.65C95.1006 107.091 95.4323 105.853 94.8734 104.885C94.3145 103.917 93.077 103.585 92.1087 104.144L86.5035 107.381V100.908C86.5035 99.7903 85.5973 98.8842 84.4795 98.8842C83.3618 98.8842 82.4556 99.7903 82.4556 100.908V107.38L76.8504 104.144C75.8821 103.585 74.6446 103.917 74.0857 104.885C73.5268 105.853 73.8585 107.091 74.8265 107.65L80.4317 110.886L74.8265 114.122C73.8585 114.681 73.5268 115.919 74.0857 116.887Z" fill="#E64852"/>
<path d="M43.1262 116.887C43.5011 117.536 44.1814 117.899 44.8808 117.899C45.2241 117.899 45.5722 117.812 45.8909 117.628L51.4961 114.392V120.864C51.4961 121.982 52.4023 122.888 53.5201 122.888C54.6378 122.888 55.544 121.982 55.544 120.864V114.392L61.1492 117.628C61.4679 117.812 61.8161 117.9 62.1593 117.9C62.8588 117.9 63.5391 117.536 63.9139 116.887C64.4728 115.919 64.1412 114.682 63.1732 114.123L57.5679 110.887L63.1732 107.65C64.1412 107.092 64.4728 105.854 63.9139 104.886C63.3551 103.917 62.1172 103.586 61.1492 104.145L55.544 107.381V100.909C55.544 99.7911 54.6378 98.8849 53.5201 98.8849C52.4023 98.8849 51.4961 99.7911 51.4961 100.909V107.381L45.8909 104.145C44.9227 103.586 43.6851 103.918 43.1262 104.886C42.5673 105.854 42.899 107.092 43.867 107.651L49.4722 110.887L43.867 114.123C42.899 114.681 42.5673 115.919 43.1262 116.887Z" fill="#E64852"/>
<path d="M105.045 116.887C105.42 117.536 106.1 117.899 106.8 117.899C107.143 117.899 107.491 117.812 107.81 117.628L113.415 114.392V120.864C113.415 121.982 114.321 122.888 115.439 122.888C116.557 122.888 117.463 121.982 117.463 120.864V114.392L123.068 117.628C123.387 117.812 123.735 117.9 124.078 117.9C124.778 117.9 125.458 117.536 125.833 116.887C126.392 115.919 126.06 114.682 125.092 114.123L119.487 110.887L125.092 107.65C126.06 107.092 126.392 105.854 125.833 104.886C125.274 103.917 124.036 103.586 123.068 104.145L117.463 107.381V100.909C117.463 99.7911 116.557 98.8849 115.439 98.8849C114.321 98.8849 113.415 99.7911 113.415 100.909V107.381L107.81 104.145C106.842 103.586 105.604 103.918 105.045 104.886C104.486 105.854 104.818 107.092 105.786 107.651L111.391 110.887L105.786 114.123C104.818 114.681 104.486 115.919 105.045 116.887Z" fill="#E64852"/>
<path d="M129.443 86.8215H105.282V67.451C105.282 66.3333 104.376 65.4271 103.258 65.4271C102.141 65.4271 101.235 66.3333 101.235 67.451V86.8215H78.1895L77.1127 77.2539C78.0608 75.7392 78.5611 73.993 78.5611 72.1952C78.5611 69.5673 77.4627 67.0276 75.5476 65.228C73.6046 63.4018 71.0625 62.4884 68.3923 62.6541C63.5845 62.9509 59.7425 66.8037 59.4559 71.6158C59.3369 73.6151 59.8297 75.5595 60.887 77.2555L59.8103 86.8212H36.7655V53.1891C36.7655 51.9407 37.7812 50.9249 39.0296 50.9249H98.9704C100.219 50.9249 101.235 51.9407 101.235 53.1891V58.006C101.235 59.1238 102.141 60.03 103.258 60.03C104.376 60.03 105.282 59.1238 105.282 58.006V53.1891C105.282 49.7087 102.451 46.8771 98.9704 46.8771H98.652V34.9763C98.652 27.0595 95.5675 19.612 89.9655 14.0041C84.3625 8.40693 76.9168 5.32434 69.0003 5.32434C52.6501 5.32434 39.3483 18.6262 39.3483 34.9763V46.8771H39.0298C35.5495 46.8771 32.7179 49.7087 32.7179 53.1891V86.8215H8.5572C3.83873 86.8215 0 90.6602 0 95.3787V124.119C0 128.837 3.83873 132.676 8.5572 132.676H22.5601C23.6779 132.676 24.5841 131.77 24.5841 130.652C24.5841 129.534 23.6779 128.628 22.5601 128.628H8.5572C6.07073 128.628 4.04787 126.605 4.04787 124.119V95.3787C4.04787 92.8922 6.07073 90.8693 8.5572 90.8693H129.443C131.929 90.8693 133.952 92.8922 133.952 95.3787V124.119C133.952 126.605 131.929 128.628 129.443 128.628H32.0052C30.8874 128.628 29.9812 129.534 29.9812 130.652C29.9812 131.77 30.8874 132.676 32.0052 132.676H129.443C134.161 132.676 138 128.837 138 124.119V95.3787C138 90.6602 134.161 86.8215 129.443 86.8215ZM81.3433 46.8771H56.6567V34.9763C56.6567 28.1702 62.1939 22.633 69 22.633C72.2958 22.633 75.3954 23.9159 77.7256 26.2437C80.0585 28.5791 81.3433 31.6803 81.3433 34.9761V46.8771ZM43.3959 34.9763C43.3959 20.8582 54.8818 9.37221 69 9.37221C75.8363 9.37221 82.2659 12.0341 87.1031 16.8664C91.9401 21.7085 94.6041 28.14 94.6041 34.9763V46.8771H85.3912V34.9763C85.3912 30.6001 83.6859 26.4828 80.5877 23.3816C77.4914 20.2888 73.376 18.5854 69 18.5854C59.9619 18.5854 52.6088 25.9385 52.6088 34.9766V46.8773H43.3959V34.9763ZM64.3609 75.1755C63.7251 74.1867 63.4264 73.0393 63.4968 71.8568C63.6592 69.1301 65.919 66.8625 68.6427 66.6944C70.1871 66.5988 71.6554 67.1251 72.7756 68.1778C73.896 69.2308 74.5132 70.6575 74.5132 72.1952C74.5132 73.2568 74.2115 74.2855 73.6399 75.1714C73.185 75.8782 72.9834 76.7239 73.0738 77.5624L74.116 86.8215H63.8838L64.9268 77.5529C65.0169 76.7204 64.814 75.8733 64.3609 75.1755Z" fill="#E64852"/>
</g>
<defs>
<clipPath id="clip0_97_9056">
<rect width="138" height="138" fill="white"/>
</clipPath>
</defs>
</svg>
